<mxfile host="app.diagrams.net" agent="Mozilla/5.0 (Windows NT 10.0; Win64; x64) AppleWebKit/537.36 (KHTML, like Gecko) Chrome/138.0.0.0 Safari/537.36 Edg/138.0.0.0" version="28.0.4">
  <diagram name="PÃ¡gina-1" id="yHMo3jJavOVYdjVywVJq">
    <mxGraphModel grid="1" page="1" gridSize="10" guides="1" tooltips="1" connect="1" arrows="1" fold="1" pageScale="1" pageWidth="827" pageHeight="1169" math="0" shadow="0">
      <root>
        <mxCell id="0" />
        <mxCell id="1" parent="0" />
        <mxCell id="Erd8DNb-W4w3eMGdOFvl-17" value="Backend" style="shape=folder;fontStyle=1;spacingTop=10;tabWidth=40;tabHeight=14;tabPosition=left;html=1;whiteSpace=wrap;verticalAlign=top;" vertex="1" parent="1">
          <mxGeometry x="1070" y="460" width="1930" height="2620" as="geometry" />
        </mxCell>
        <mxCell id="Erd8DNb-W4w3eMGdOFvl-86" value="VPC" style="rounded=1;arcSize=10;dashed=1;strokeColor=#ff0000;fillColor=none;gradientColor=none;dashPattern=8 4;strokeWidth=2;align=center;verticalAlign=top;" vertex="1" parent="1">
          <mxGeometry x="1290" y="502" width="1610" height="1070" as="geometry" />
        </mxCell>
        <mxCell id="Erd8DNb-W4w3eMGdOFvl-13" style="edgeStyle=orthogonalEdgeStyle;rounded=0;orthogonalLoop=1;jettySize=auto;html=1;endArrow=none;startFill=0;" edge="1" parent="1" source="Erd8DNb-W4w3eMGdOFvl-81" target="Erd8DNb-W4w3eMGdOFvl-12">
          <mxGeometry relative="1" as="geometry">
            <mxPoint x="505" y="131.99999999999955" as="sourcePoint" />
          </mxGeometry>
        </mxCell>
        <mxCell id="Erd8DNb-W4w3eMGdOFvl-12" value="" style="shape=providedRequiredInterface;html=1;verticalLabelPosition=bottom;sketch=0;" vertex="1" parent="1">
          <mxGeometry x="710" y="125" width="20" height="20" as="geometry" />
        </mxCell>
        <mxCell id="Erd8DNb-W4w3eMGdOFvl-16" value="FrontEnd" style="shape=folder;fontStyle=1;spacingTop=10;tabWidth=40;tabHeight=14;tabPosition=left;html=1;whiteSpace=wrap;verticalAlign=top;" vertex="1" parent="1">
          <mxGeometry x="780" y="10" width="180" height="170" as="geometry" />
        </mxCell>
        <mxCell id="Erd8DNb-W4w3eMGdOFvl-18" value="Security" style="shape=folder;fontStyle=1;spacingTop=10;tabWidth=40;tabHeight=14;tabPosition=left;html=1;whiteSpace=wrap;verticalAlign=top;" vertex="1" parent="1">
          <mxGeometry x="1060" y="14" width="400" height="346" as="geometry" />
        </mxCell>
        <mxCell id="Erd8DNb-W4w3eMGdOFvl-19" value="Use" style="edgeStyle=orthogonalEdgeStyle;rounded=0;orthogonalLoop=1;jettySize=auto;html=1;dashed=1;" edge="1" parent="1" source="Erd8DNb-W4w3eMGdOFvl-87" target="Erd8DNb-W4w3eMGdOFvl-69">
          <mxGeometry relative="1" as="geometry">
            <mxPoint x="1241" y="109" as="sourcePoint" />
            <mxPoint x="1360.0000000000005" y="164" as="targetPoint" />
          </mxGeometry>
        </mxCell>
        <mxCell id="Erd8DNb-W4w3eMGdOFvl-61" style="edgeStyle=orthogonalEdgeStyle;rounded=0;orthogonalLoop=1;jettySize=auto;html=1;endArrow=none;startFill=0;exitX=1;exitY=0.5;exitDx=0;exitDy=0;exitPerimeter=0;" edge="1" parent="1" source="sVt3kaKpTzCnSV4Rbx-7-1" target="Erd8DNb-W4w3eMGdOFvl-87">
          <mxGeometry relative="1" as="geometry">
            <mxPoint x="895" y="135" as="sourcePoint" />
            <mxPoint x="1101" y="135" as="targetPoint" />
          </mxGeometry>
        </mxCell>
        <mxCell id="Erd8DNb-W4w3eMGdOFvl-55" style="edgeStyle=orthogonalEdgeStyle;rounded=0;orthogonalLoop=1;jettySize=auto;html=1;endArrow=none;startFill=0;exitX=1;exitY=0.5;exitDx=0;exitDy=0;exitPerimeter=0;" edge="1" parent="1" source="Erd8DNb-W4w3eMGdOFvl-172" target="Erd8DNb-W4w3eMGdOFvl-80">
          <mxGeometry relative="1" as="geometry">
            <mxPoint x="1984" y="645.0000000000005" as="sourcePoint" />
            <mxPoint x="1584.9999999999995" y="794.9999999999995" as="targetPoint" />
          </mxGeometry>
        </mxCell>
        <mxCell id="Erd8DNb-W4w3eMGdOFvl-64" style="edgeStyle=orthogonalEdgeStyle;rounded=0;orthogonalLoop=1;jettySize=auto;html=1;endArrow=none;startFill=0;" edge="1" parent="1" source="Erd8DNb-W4w3eMGdOFvl-82" target="Erd8DNb-W4w3eMGdOFvl-63">
          <mxGeometry relative="1" as="geometry">
            <mxPoint x="1171" y="-40" as="sourcePoint" />
          </mxGeometry>
        </mxCell>
        <mxCell id="Erd8DNb-W4w3eMGdOFvl-65" style="edgeStyle=orthogonalEdgeStyle;rounded=0;orthogonalLoop=1;jettySize=auto;html=1;endArrow=box;endFill=0;" edge="1" parent="1" target="Erd8DNb-W4w3eMGdOFvl-87">
          <mxGeometry relative="1" as="geometry">
            <mxPoint x="1171" y="4" as="sourcePoint" />
            <mxPoint x="1171" y="74" as="targetPoint" />
          </mxGeometry>
        </mxCell>
        <mxCell id="Erd8DNb-W4w3eMGdOFvl-63" value="" style="shape=providedRequiredInterface;html=1;verticalLabelPosition=bottom;sketch=0;" vertex="1" parent="1">
          <mxGeometry x="1161" y="-8" width="20" height="20" as="geometry" />
        </mxCell>
        <mxCell id="ePmwRNUwPmLQJli47gn0-11" style="edgeStyle=orthogonalEdgeStyle;rounded=0;orthogonalLoop=1;jettySize=auto;html=1;endArrow=none;startFill=0;" edge="1" parent="1" source="Erd8DNb-W4w3eMGdOFvl-68" target="ePmwRNUwPmLQJli47gn0-10">
          <mxGeometry relative="1" as="geometry" />
        </mxCell>
        <mxCell id="Erd8DNb-W4w3eMGdOFvl-68" value="Dynamo DB" style="sketch=0;points=[[0,0,0],[0.25,0,0],[0.5,0,0],[0.75,0,0],[1,0,0],[0,1,0],[0.25,1,0],[0.5,1,0],[0.75,1,0],[1,1,0],[0,0.25,0],[0,0.5,0],[0,0.75,0],[1,0.25,0],[1,0.5,0],[1,0.75,0]];outlineConnect=0;fontColor=#232F3E;fillColor=#C925D1;strokeColor=#ffffff;dashed=0;verticalLabelPosition=bottom;verticalAlign=top;align=center;html=1;fontSize=12;fontStyle=0;aspect=fixed;shape=mxgraph.aws4.resourceIcon;resIcon=mxgraph.aws4.documentdb_with_mongodb_compatibility;" vertex="1" parent="1">
          <mxGeometry x="2675" y="943.5" width="78" height="78" as="geometry" />
        </mxCell>
        <mxCell id="Erd8DNb-W4w3eMGdOFvl-69" value="AWS Cognito" style="sketch=0;points=[[0,0,0],[0.25,0,0],[0.5,0,0],[0.75,0,0],[1,0,0],[0,1,0],[0.25,1,0],[0.5,1,0],[0.75,1,0],[1,1,0],[0,0.25,0],[0,0.5,0],[0,0.75,0],[1,0.25,0],[1,0.5,0],[1,0.75,0]];outlineConnect=0;fontColor=#232F3E;fillColor=#DD344C;strokeColor=#ffffff;dashed=0;verticalLabelPosition=bottom;verticalAlign=top;align=center;html=1;fontSize=12;fontStyle=0;aspect=fixed;shape=mxgraph.aws4.resourceIcon;resIcon=mxgraph.aws4.cognito;" vertex="1" parent="1">
          <mxGeometry x="1330" y="96" width="78" height="78" as="geometry" />
        </mxCell>
        <mxCell id="Erd8DNb-W4w3eMGdOFvl-140" style="edgeStyle=orthogonalEdgeStyle;rounded=0;orthogonalLoop=1;jettySize=auto;html=1;endArrow=box;endFill=0;dashed=1;dashPattern=12 12;exitX=0.5;exitY=1;exitDx=0;exitDy=0;exitPerimeter=0;" edge="1" parent="1" source="Erd8DNb-W4w3eMGdOFvl-172" target="ePmwRNUwPmLQJli47gn0-9">
          <mxGeometry relative="1" as="geometry">
            <mxPoint x="1945" y="684" as="sourcePoint" />
            <Array as="points">
              <mxPoint x="1950" y="660" />
              <mxPoint x="1945" y="660" />
              <mxPoint x="1945" y="760" />
              <mxPoint x="2317" y="760" />
            </Array>
            <mxPoint x="2317" y="940" as="targetPoint" />
          </mxGeometry>
        </mxCell>
        <mxCell id="Erd8DNb-W4w3eMGdOFvl-83" style="edgeStyle=orthogonalEdgeStyle;rounded=0;orthogonalLoop=1;jettySize=auto;html=1;endArrow=none;startFill=0;" edge="1" parent="1" source="Erd8DNb-W4w3eMGdOFvl-71" target="Erd8DNb-W4w3eMGdOFvl-68">
          <mxGeometry relative="1" as="geometry">
            <mxPoint x="2059" y="1451.7500000000005" as="targetPoint" />
          </mxGeometry>
        </mxCell>
        <mxCell id="Erd8DNb-W4w3eMGdOFvl-71" value="Lambda" style="sketch=0;points=[[0,0,0],[0.25,0,0],[0.5,0,0],[0.75,0,0],[1,0,0],[0,1,0],[0.25,1,0],[0.5,1,0],[0.75,1,0],[1,1,0],[0,0.25,0],[0,0.5,0],[0,0.75,0],[1,0.25,0],[1,0.5,0],[1,0.75,0]];outlineConnect=0;fontColor=#232F3E;fillColor=#ED7100;strokeColor=#ffffff;dashed=0;verticalLabelPosition=bottom;verticalAlign=top;align=center;html=1;fontSize=12;fontStyle=0;aspect=fixed;shape=mxgraph.aws4.resourceIcon;resIcon=mxgraph.aws4.lambda;" vertex="1" parent="1">
          <mxGeometry x="2495" y="943.5" width="78" height="78" as="geometry" />
        </mxCell>
        <mxCell id="ePmwRNUwPmLQJli47gn0-14" style="edgeStyle=orthogonalEdgeStyle;rounded=0;orthogonalLoop=1;jettySize=auto;html=1;endArrow=none;startFill=0;" edge="1" parent="1" source="Erd8DNb-W4w3eMGdOFvl-73" target="ePmwRNUwPmLQJli47gn0-3">
          <mxGeometry relative="1" as="geometry">
            <Array as="points">
              <mxPoint x="1460" y="785" />
            </Array>
          </mxGeometry>
        </mxCell>
        <mxCell id="elr93pxBDH8Kl8Y7-WfT-13" style="edgeStyle=orthogonalEdgeStyle;rounded=0;orthogonalLoop=1;jettySize=auto;html=1;exitX=1;exitY=0.5;exitDx=0;exitDy=0;exitPerimeter=0;entryX=0;entryY=0.5;entryDx=0;entryDy=0;endArrow=box;endFill=0;" edge="1" parent="1" source="Erd8DNb-W4w3eMGdOFvl-73" target="elr93pxBDH8Kl8Y7-WfT-10">
          <mxGeometry relative="1" as="geometry" />
        </mxCell>
        <mxCell id="Erd8DNb-W4w3eMGdOFvl-73" value="ECS" style="sketch=0;points=[[0,0,0],[0.25,0,0],[0.5,0,0],[0.75,0,0],[1,0,0],[0,1,0],[0.25,1,0],[0.5,1,0],[0.75,1,0],[1,1,0],[0,0.25,0],[0,0.5,0],[0,0.75,0],[1,0.25,0],[1,0.5,0],[1,0.75,0]];outlineConnect=0;fontColor=#232F3E;fillColor=#ED7100;strokeColor=#ffffff;dashed=0;verticalLabelPosition=bottom;verticalAlign=top;align=center;html=1;fontSize=12;fontStyle=0;aspect=fixed;shape=mxgraph.aws4.resourceIcon;resIcon=mxgraph.aws4.ecs;" vertex="1" parent="1">
          <mxGeometry x="1420" y="606" width="78" height="78" as="geometry" />
        </mxCell>
        <mxCell id="Erd8DNb-W4w3eMGdOFvl-80" value="RDS" style="sketch=0;points=[[0,0,0],[0.25,0,0],[0.5,0,0],[0.75,0,0],[1,0,0],[0,1,0],[0.25,1,0],[0.5,1,0],[0.75,1,0],[1,1,0],[0,0.25,0],[0,0.5,0],[0,0.75,0],[1,0.25,0],[1,0.5,0],[1,0.75,0]];outlineConnect=0;fontColor=#232F3E;fillColor=#C925D1;strokeColor=#ffffff;dashed=0;verticalLabelPosition=bottom;verticalAlign=top;align=center;html=1;fontSize=12;fontStyle=0;aspect=fixed;shape=mxgraph.aws4.resourceIcon;resIcon=mxgraph.aws4.rds;" vertex="1" parent="1">
          <mxGeometry x="2095" y="606" width="78" height="78" as="geometry" />
        </mxCell>
        <mxCell id="Erd8DNb-W4w3eMGdOFvl-81" value="" style="fontColor=#0066CC;verticalAlign=top;verticalLabelPosition=bottom;labelPosition=center;align=center;html=1;outlineConnect=0;fillColor=#CCCCCC;strokeColor=#6881B3;gradientColor=none;gradientDirection=north;strokeWidth=2;shape=mxgraph.networks.pc;" vertex="1" parent="1">
          <mxGeometry x="550" y="100" width="100" height="70" as="geometry" />
        </mxCell>
        <mxCell id="Erd8DNb-W4w3eMGdOFvl-82" value="" style="fontColor=#0066CC;verticalAlign=top;verticalLabelPosition=bottom;labelPosition=center;align=center;html=1;outlineConnect=0;fillColor=#CCCCCC;strokeColor=#6881B3;gradientColor=none;gradientDirection=north;strokeWidth=2;shape=mxgraph.networks.pc;" vertex="1" parent="1">
          <mxGeometry x="1121" y="-130" width="100" height="70" as="geometry" />
        </mxCell>
        <mxCell id="Erd8DNb-W4w3eMGdOFvl-103" style="edgeStyle=orthogonalEdgeStyle;rounded=0;orthogonalLoop=1;jettySize=auto;html=1;endArrow=box;startFill=0;endFill=0;" edge="1" parent="1" source="Erd8DNb-W4w3eMGdOFvl-84" target="Erd8DNb-W4w3eMGdOFvl-73">
          <mxGeometry relative="1" as="geometry" />
        </mxCell>
        <mxCell id="Erd8DNb-W4w3eMGdOFvl-84" value="Load Balancer" style="sketch=0;outlineConnect=0;fontColor=#232F3E;gradientColor=none;fillColor=#8C4FFF;strokeColor=none;dashed=0;verticalLabelPosition=bottom;verticalAlign=top;align=center;html=1;fontSize=12;fontStyle=0;aspect=fixed;pointerEvents=1;shape=mxgraph.aws4.application_load_balancer;" vertex="1" parent="1">
          <mxGeometry x="1132" y="606.5" width="78" height="78" as="geometry" />
        </mxCell>
        <mxCell id="ePmwRNUwPmLQJli47gn0-1" value="Use" style="edgeStyle=orthogonalEdgeStyle;rounded=0;orthogonalLoop=1;jettySize=auto;html=1;dashed=1;" edge="1" parent="1" source="Erd8DNb-W4w3eMGdOFvl-87" target="Erd8DNb-W4w3eMGdOFvl-148">
          <mxGeometry relative="1" as="geometry">
            <Array as="points">
              <mxPoint x="1250" y="135" />
              <mxPoint x="1250" y="280" />
            </Array>
          </mxGeometry>
        </mxCell>
        <mxCell id="ePmwRNUwPmLQJli47gn0-2" style="edgeStyle=orthogonalEdgeStyle;rounded=0;orthogonalLoop=1;jettySize=auto;html=1;endArrow=none;startFill=0;" edge="1" parent="1" source="Erd8DNb-W4w3eMGdOFvl-87" target="Erd8DNb-W4w3eMGdOFvl-84">
          <mxGeometry relative="1" as="geometry" />
        </mxCell>
        <mxCell id="Erd8DNb-W4w3eMGdOFvl-87" value="Api Gateway" style="sketch=0;points=[[0,0,0],[0.25,0,0],[0.5,0,0],[0.75,0,0],[1,0,0],[0,1,0],[0.25,1,0],[0.5,1,0],[0.75,1,0],[1,1,0],[0,0.25,0],[0,0.5,0],[0,0.75,0],[1,0.25,0],[1,0.5,0],[1,0.75,0]];outlineConnect=0;fontColor=#232F3E;fillColor=#8C4FFF;strokeColor=#ffffff;dashed=0;verticalLabelPosition=bottom;verticalAlign=top;align=center;html=1;fontSize=12;fontStyle=0;aspect=fixed;shape=mxgraph.aws4.resourceIcon;resIcon=mxgraph.aws4.api_gateway;" vertex="1" parent="1">
          <mxGeometry x="1132" y="96" width="78" height="78" as="geometry" />
        </mxCell>
        <mxCell id="Erd8DNb-W4w3eMGdOFvl-93" style="edgeStyle=orthogonalEdgeStyle;rounded=0;orthogonalLoop=1;jettySize=auto;html=1;endArrow=none;startFill=0;" edge="1" parent="1" source="Erd8DNb-W4w3eMGdOFvl-90" target="Erd8DNb-W4w3eMGdOFvl-91">
          <mxGeometry relative="1" as="geometry" />
        </mxCell>
        <mxCell id="Erd8DNb-W4w3eMGdOFvl-90" value="" style="outlineConnect=0;dashed=0;verticalLabelPosition=bottom;verticalAlign=top;align=center;html=1;shape=mxgraph.aws3.camera;fillColor=#5294CF;gradientColor=none;" vertex="1" parent="1">
          <mxGeometry x="1615" y="-124.75" width="79.5" height="79.5" as="geometry" />
        </mxCell>
        <mxCell id="Erd8DNb-W4w3eMGdOFvl-94" style="edgeStyle=orthogonalEdgeStyle;rounded=0;orthogonalLoop=1;jettySize=auto;html=1;endArrow=none;startFill=0;" edge="1" parent="1" source="Erd8DNb-W4w3eMGdOFvl-91" target="Erd8DNb-W4w3eMGdOFvl-92">
          <mxGeometry relative="1" as="geometry" />
        </mxCell>
        <mxCell id="Erd8DNb-W4w3eMGdOFvl-91" value="Amazon IoT Core" style="sketch=0;outlineConnect=0;fontColor=#232F3E;gradientColor=none;strokeColor=#ffffff;fillColor=#232F3E;dashed=0;verticalLabelPosition=middle;verticalAlign=bottom;align=center;html=1;whiteSpace=wrap;fontSize=10;fontStyle=1;spacing=3;shape=mxgraph.aws4.productIcon;prIcon=mxgraph.aws4.iot_core;" vertex="1" parent="1">
          <mxGeometry x="1498" y="-140" width="80" height="110" as="geometry" />
        </mxCell>
        <mxCell id="Erd8DNb-W4w3eMGdOFvl-151" style="edgeStyle=orthogonalEdgeStyle;rounded=0;orthogonalLoop=1;jettySize=auto;html=1;endArrow=none;startFill=0;entryX=1;entryY=0.5;entryDx=0;entryDy=0;entryPerimeter=0;" edge="1" parent="1" source="Erd8DNb-W4w3eMGdOFvl-92" target="Erd8DNb-W4w3eMGdOFvl-63">
          <mxGeometry relative="1" as="geometry">
            <Array as="points">
              <mxPoint x="1330" y="-85" />
              <mxPoint x="1330" y="2" />
            </Array>
          </mxGeometry>
        </mxCell>
        <mxCell id="Erd8DNb-W4w3eMGdOFvl-92" value="AWS IoT&#xa;1-Click" style="sketch=0;outlineConnect=0;fontColor=#232F3E;gradientColor=none;strokeColor=#ffffff;fillColor=#232F3E;dashed=0;verticalLabelPosition=middle;verticalAlign=bottom;align=center;html=1;whiteSpace=wrap;fontSize=10;fontStyle=1;spacing=3;shape=mxgraph.aws4.productIcon;prIcon=mxgraph.aws4.iot_1click;" vertex="1" parent="1">
          <mxGeometry x="1380" y="-140" width="80" height="110" as="geometry" />
        </mxCell>
        <mxCell id="Erd8DNb-W4w3eMGdOFvl-98" value="Firebase" style="shape=image;html=1;verticalAlign=top;verticalLabelPosition=bottom;labelBackgroundColor=#ffffff;imageAspect=0;aspect=fixed;image=https://cdn2.iconfinder.com/data/icons/boxicons-logos/24/bxl-firebase-128.png" vertex="1" parent="1">
          <mxGeometry x="790" y="40" width="60" height="60" as="geometry" />
        </mxCell>
        <mxCell id="Erd8DNb-W4w3eMGdOFvl-113" style="edgeStyle=orthogonalEdgeStyle;rounded=0;orthogonalLoop=1;jettySize=auto;html=1;endArrow=none;startFill=0;" edge="1" parent="1" source="ePmwRNUwPmLQJli47gn0-9" target="Erd8DNb-W4w3eMGdOFvl-71">
          <mxGeometry relative="1" as="geometry">
            <mxPoint x="2408.52" y="982.5" as="sourcePoint" />
          </mxGeometry>
        </mxCell>
        <mxCell id="Erd8DNb-W4w3eMGdOFvl-143" style="edgeStyle=orthogonalEdgeStyle;rounded=0;orthogonalLoop=1;jettySize=auto;html=1;endArrow=box;endFill=0;dashed=1;dashPattern=8 8;exitX=0.5;exitY=1;exitDx=0;exitDy=0;exitPerimeter=0;entryX=0;entryY=0.5;entryDx=0;entryDy=0;entryPerimeter=0;" edge="1" parent="1" source="Erd8DNb-W4w3eMGdOFvl-171" target="ePmwRNUwPmLQJli47gn0-9">
          <mxGeometry relative="1" as="geometry">
            <mxPoint x="2225.3076923076924" y="980" as="targetPoint" />
            <mxPoint x="1945" y="900" as="sourcePoint" />
            <Array as="points">
              <mxPoint x="1945" y="983" />
            </Array>
          </mxGeometry>
        </mxCell>
        <mxCell id="Erd8DNb-W4w3eMGdOFvl-119" value="RDS" style="sketch=0;points=[[0,0,0],[0.25,0,0],[0.5,0,0],[0.75,0,0],[1,0,0],[0,1,0],[0.25,1,0],[0.5,1,0],[0.75,1,0],[1,1,0],[0,0.25,0],[0,0.5,0],[0,0.75,0],[1,0.25,0],[1,0.5,0],[1,0.75,0]];outlineConnect=0;fontColor=#232F3E;fillColor=#C925D1;strokeColor=#ffffff;dashed=0;verticalLabelPosition=bottom;verticalAlign=top;align=center;html=1;fontSize=12;fontStyle=0;aspect=fixed;shape=mxgraph.aws4.resourceIcon;resIcon=mxgraph.aws4.rds;" vertex="1" parent="1">
          <mxGeometry x="2096" y="822" width="78" height="78" as="geometry" />
        </mxCell>
        <mxCell id="Erd8DNb-W4w3eMGdOFvl-124" style="edgeStyle=orthogonalEdgeStyle;rounded=0;orthogonalLoop=1;jettySize=auto;html=1;endArrow=none;startFill=0;exitX=1;exitY=0.5;exitDx=0;exitDy=0;exitPerimeter=0;" edge="1" parent="1" source="Erd8DNb-W4w3eMGdOFvl-169" target="Erd8DNb-W4w3eMGdOFvl-128">
          <mxGeometry relative="1" as="geometry">
            <mxPoint x="1984" y="1301" as="sourcePoint" />
          </mxGeometry>
        </mxCell>
        <mxCell id="Erd8DNb-W4w3eMGdOFvl-141" style="edgeStyle=orthogonalEdgeStyle;rounded=0;orthogonalLoop=1;jettySize=auto;html=1;endArrow=box;endFill=0;dashed=1;dashPattern=8 8;exitX=0.5;exitY=0;exitDx=0;exitDy=0;exitPerimeter=0;" edge="1" parent="1" source="Erd8DNb-W4w3eMGdOFvl-169" target="ePmwRNUwPmLQJli47gn0-9">
          <mxGeometry relative="1" as="geometry">
            <mxPoint x="1932" y="1279" as="sourcePoint" />
            <mxPoint x="2309.0000000000005" y="1024" as="targetPoint" />
            <Array as="points">
              <mxPoint x="1940" y="1209" />
              <mxPoint x="2309" y="1209" />
            </Array>
          </mxGeometry>
        </mxCell>
        <mxCell id="Erd8DNb-W4w3eMGdOFvl-126" style="edgeStyle=orthogonalEdgeStyle;rounded=0;orthogonalLoop=1;jettySize=auto;html=1;endArrow=box;endFill=0;entryX=0;entryY=0.5;entryDx=0;entryDy=0;entryPerimeter=0;" edge="1" parent="1" source="Erd8DNb-W4w3eMGdOFvl-73" target="Erd8DNb-W4w3eMGdOFvl-169">
          <mxGeometry relative="1" as="geometry">
            <mxPoint x="1498" y="1301" as="sourcePoint" />
            <mxPoint x="1601" y="1301" as="targetPoint" />
            <Array as="points">
              <mxPoint x="1460" y="1297" />
            </Array>
          </mxGeometry>
        </mxCell>
        <mxCell id="Erd8DNb-W4w3eMGdOFvl-128" value="RDS" style="sketch=0;points=[[0,0,0],[0.25,0,0],[0.5,0,0],[0.75,0,0],[1,0,0],[0,1,0],[0.25,1,0],[0.5,1,0],[0.75,1,0],[1,1,0],[0,0.25,0],[0,0.5,0],[0,0.75,0],[1,0.25,0],[1,0.5,0],[1,0.75,0]];outlineConnect=0;fontColor=#232F3E;fillColor=#C925D1;strokeColor=#ffffff;dashed=0;verticalLabelPosition=bottom;verticalAlign=top;align=center;html=1;fontSize=12;fontStyle=0;aspect=fixed;shape=mxgraph.aws4.resourceIcon;resIcon=mxgraph.aws4.rds;" vertex="1" parent="1">
          <mxGeometry x="2096" y="1258" width="78" height="78" as="geometry" />
        </mxCell>
        <mxCell id="Erd8DNb-W4w3eMGdOFvl-131" style="edgeStyle=orthogonalEdgeStyle;rounded=0;orthogonalLoop=1;jettySize=auto;html=1;endArrow=none;startFill=0;" edge="1" parent="1" source="Erd8DNb-W4w3eMGdOFvl-170" target="Erd8DNb-W4w3eMGdOFvl-135">
          <mxGeometry relative="1" as="geometry">
            <mxPoint x="1982.9999999999995" y="1097" as="sourcePoint" />
          </mxGeometry>
        </mxCell>
        <mxCell id="Erd8DNb-W4w3eMGdOFvl-138" style="edgeStyle=orthogonalEdgeStyle;rounded=0;orthogonalLoop=1;jettySize=auto;html=1;endArrow=box;endFill=0;dashed=1;dashPattern=8 8;exitX=0.5;exitY=0;exitDx=0;exitDy=0;exitPerimeter=0;" edge="1" parent="1" source="Erd8DNb-W4w3eMGdOFvl-170" target="ePmwRNUwPmLQJli47gn0-9">
          <mxGeometry relative="1" as="geometry">
            <mxPoint x="1949" y="1079" as="sourcePoint" />
            <mxPoint x="2225" y="981.5" as="targetPoint" />
            <Array as="points">
              <mxPoint x="1945" y="982" />
            </Array>
          </mxGeometry>
        </mxCell>
        <mxCell id="Erd8DNb-W4w3eMGdOFvl-135" value="RDS" style="sketch=0;points=[[0,0,0],[0.25,0,0],[0.5,0,0],[0.75,0,0],[1,0,0],[0,1,0],[0.25,1,0],[0.5,1,0],[0.75,1,0],[1,1,0],[0,0.25,0],[0,0.5,0],[0,0.75,0],[1,0.25,0],[1,0.5,0],[1,0.75,0]];outlineConnect=0;fontColor=#232F3E;fillColor=#C925D1;strokeColor=#ffffff;dashed=0;verticalLabelPosition=bottom;verticalAlign=top;align=center;html=1;fontSize=12;fontStyle=0;aspect=fixed;shape=mxgraph.aws4.resourceIcon;resIcon=mxgraph.aws4.rds;" vertex="1" parent="1">
          <mxGeometry x="2095" y="1057" width="78" height="78" as="geometry" />
        </mxCell>
        <mxCell id="Erd8DNb-W4w3eMGdOFvl-148" value="WAF" style="sketch=0;points=[[0,0,0],[0.25,0,0],[0.5,0,0],[0.75,0,0],[1,0,0],[0,1,0],[0.25,1,0],[0.5,1,0],[0.75,1,0],[1,1,0],[0,0.25,0],[0,0.5,0],[0,0.75,0],[1,0.25,0],[1,0.5,0],[1,0.75,0]];outlineConnect=0;fontColor=#232F3E;fillColor=#DD344C;strokeColor=#ffffff;dashed=0;verticalLabelPosition=bottom;verticalAlign=top;align=center;html=1;fontSize=12;fontStyle=0;aspect=fixed;shape=mxgraph.aws4.resourceIcon;resIcon=mxgraph.aws4.waf;" vertex="1" parent="1">
          <mxGeometry x="1330" y="240" width="80" height="80" as="geometry" />
        </mxCell>
        <mxCell id="Erd8DNb-W4w3eMGdOFvl-155" style="edgeStyle=orthogonalEdgeStyle;rounded=0;orthogonalLoop=1;jettySize=auto;html=1;exitX=0.571;exitY=0.939;exitDx=0;exitDy=0;exitPerimeter=0;endArrow=none;startFill=0;" edge="1" parent="1" source="sVt3kaKpTzCnSV4Rbx-7-2" target="Erd8DNb-W4w3eMGdOFvl-68">
          <mxGeometry relative="1" as="geometry">
            <mxPoint x="2714" y="788" as="sourcePoint" />
          </mxGeometry>
        </mxCell>
        <mxCell id="Erd8DNb-W4w3eMGdOFvl-161" style="rounded=0;orthogonalLoop=1;jettySize=auto;html=1;startArrow=open;startFill=0;endArrow=none;edgeStyle=orthogonalEdgeStyle;" edge="1" parent="1" source="Erd8DNb-W4w3eMGdOFvl-156" target="Erd8DNb-W4w3eMGdOFvl-73">
          <mxGeometry relative="1" as="geometry">
            <Array as="points" />
          </mxGeometry>
        </mxCell>
        <mxCell id="Erd8DNb-W4w3eMGdOFvl-156" value="AWS Secrets Manager" style="sketch=0;outlineConnect=0;fontColor=#232F3E;gradientColor=none;strokeColor=#ffffff;fillColor=#232F3E;dashed=0;verticalLabelPosition=middle;verticalAlign=bottom;align=center;html=1;whiteSpace=wrap;fontSize=10;fontStyle=1;spacing=3;shape=mxgraph.aws4.productIcon;prIcon=mxgraph.aws4.secrets_manager;" vertex="1" parent="1">
          <mxGeometry x="1490" y="350" width="80" height="110" as="geometry" />
        </mxCell>
        <mxCell id="ePmwRNUwPmLQJli47gn0-8" value="Use" style="edgeStyle=orthogonalEdgeStyle;rounded=0;orthogonalLoop=1;jettySize=auto;html=1;endArrow=classic;endFill=1;dashed=1;" edge="1" parent="1" source="Erd8DNb-W4w3eMGdOFvl-169" target="ePmwRNUwPmLQJli47gn0-4">
          <mxGeometry relative="1" as="geometry" />
        </mxCell>
        <mxCell id="Erd8DNb-W4w3eMGdOFvl-169" value="Msv Diagnostico" style="sketch=0;aspect=fixed;pointerEvents=1;shadow=0;dashed=0;html=1;strokeColor=none;labelPosition=center;verticalLabelPosition=bottom;verticalAlign=top;align=center;fillColor=#00188D;shape=mxgraph.mscae.enterprise.application" vertex="1" parent="1">
          <mxGeometry x="1915" y="1280" width="50" height="34" as="geometry" />
        </mxCell>
        <mxCell id="sVt3kaKpTzCnSV4Rbx-7-16" style="edgeStyle=orthogonalEdgeStyle;rounded=0;orthogonalLoop=1;jettySize=auto;html=1;exitX=1;exitY=0.5;exitDx=0;exitDy=0;exitPerimeter=0;" edge="1" parent="1" source="Erd8DNb-W4w3eMGdOFvl-170" target="sVt3kaKpTzCnSV4Rbx-7-15">
          <mxGeometry relative="1" as="geometry">
            <Array as="points">
              <mxPoint x="1970" y="920" />
              <mxPoint x="2349" y="920" />
            </Array>
          </mxGeometry>
        </mxCell>
        <mxCell id="Erd8DNb-W4w3eMGdOFvl-170" value="Otros msv" style="sketch=0;aspect=fixed;pointerEvents=1;shadow=0;dashed=0;html=1;strokeColor=none;labelPosition=center;verticalLabelPosition=bottom;verticalAlign=top;align=center;fillColor=#00188D;shape=mxgraph.mscae.enterprise.application" vertex="1" parent="1">
          <mxGeometry x="1920" y="1079" width="50" height="34" as="geometry" />
        </mxCell>
        <mxCell id="sVt3kaKpTzCnSV4Rbx-7-13" style="edgeStyle=orthogonalEdgeStyle;rounded=0;orthogonalLoop=1;jettySize=auto;html=1;endArrow=none;startFill=0;" edge="1" parent="1" source="Erd8DNb-W4w3eMGdOFvl-171" target="Erd8DNb-W4w3eMGdOFvl-119">
          <mxGeometry relative="1" as="geometry" />
        </mxCell>
        <mxCell id="sVt3kaKpTzCnSV4Rbx-7-14" style="edgeStyle=orthogonalEdgeStyle;rounded=0;orthogonalLoop=1;jettySize=auto;html=1;exitX=1;exitY=0.5;exitDx=0;exitDy=0;exitPerimeter=0;endArrow=classic;startFill=0;endFill=1;" edge="1" parent="1" source="Erd8DNb-W4w3eMGdOFvl-171" target="sVt3kaKpTzCnSV4Rbx-7-8">
          <mxGeometry relative="1" as="geometry">
            <Array as="points">
              <mxPoint x="1970" y="790" />
              <mxPoint x="2230" y="790" />
            </Array>
          </mxGeometry>
        </mxCell>
        <mxCell id="Erd8DNb-W4w3eMGdOFvl-171" value="Msv Usuarios" style="sketch=0;aspect=fixed;pointerEvents=1;shadow=0;dashed=0;html=1;strokeColor=none;labelPosition=center;verticalLabelPosition=bottom;verticalAlign=top;align=center;fillColor=#00188D;shape=mxgraph.mscae.enterprise.application" vertex="1" parent="1">
          <mxGeometry x="1920" y="844" width="50" height="34" as="geometry" />
        </mxCell>
        <mxCell id="sVt3kaKpTzCnSV4Rbx-7-10" style="edgeStyle=orthogonalEdgeStyle;rounded=0;orthogonalLoop=1;jettySize=auto;html=1;exitX=0.5;exitY=0;exitDx=0;exitDy=0;exitPerimeter=0;" edge="1" parent="1" source="Erd8DNb-W4w3eMGdOFvl-172" target="sVt3kaKpTzCnSV4Rbx-7-9">
          <mxGeometry relative="1" as="geometry" />
        </mxCell>
        <mxCell id="sVt3kaKpTzCnSV4Rbx-7-11" style="edgeStyle=orthogonalEdgeStyle;rounded=0;orthogonalLoop=1;jettySize=auto;html=1;exitX=0.5;exitY=0;exitDx=0;exitDy=0;exitPerimeter=0;" edge="1" parent="1" source="Erd8DNb-W4w3eMGdOFvl-172" target="sVt3kaKpTzCnSV4Rbx-7-7">
          <mxGeometry relative="1" as="geometry" />
        </mxCell>
        <mxCell id="Erd8DNb-W4w3eMGdOFvl-172" value="Msv Modulo de Ventas" style="sketch=0;aspect=fixed;pointerEvents=1;shadow=0;dashed=0;html=1;strokeColor=none;labelPosition=center;verticalLabelPosition=bottom;verticalAlign=top;align=center;fillColor=#00188D;shape=mxgraph.mscae.enterprise.application" vertex="1" parent="1">
          <mxGeometry x="1925" y="628" width="50" height="34" as="geometry" />
        </mxCell>
        <mxCell id="ePmwRNUwPmLQJli47gn0-3" value="Amazon CloudWatch" style="sketch=0;outlineConnect=0;fontColor=#232F3E;gradientColor=none;strokeColor=#ffffff;fillColor=#232F3E;dashed=0;verticalLabelPosition=middle;verticalAlign=bottom;align=center;html=1;whiteSpace=wrap;fontSize=10;fontStyle=1;spacing=3;shape=mxgraph.aws4.productIcon;prIcon=mxgraph.aws4.cloudwatch;" vertex="1" parent="1">
          <mxGeometry x="1348.18" y="740" width="51.82" height="90" as="geometry" />
        </mxCell>
        <mxCell id="ePmwRNUwPmLQJli47gn0-4" value="Amazon SageMaker" style="sketch=0;outlineConnect=0;fontColor=#232F3E;gradientColor=none;strokeColor=#ffffff;fillColor=#232F3E;dashed=0;verticalLabelPosition=middle;verticalAlign=bottom;align=center;html=1;whiteSpace=wrap;fontSize=10;fontStyle=1;spacing=3;shape=mxgraph.aws4.productIcon;prIcon=mxgraph.aws4.sagemaker;" vertex="1" parent="1">
          <mxGeometry x="1900" y="1400" width="80" height="110" as="geometry" />
        </mxCell>
        <mxCell id="ePmwRNUwPmLQJli47gn0-9" value="Apache Kafka" style="sketch=0;points=[[0,0,0],[0.25,0,0],[0.5,0,0],[0.75,0,0],[1,0,0],[0,1,0],[0.25,1,0],[0.5,1,0],[0.75,1,0],[1,1,0],[0,0.25,0],[0,0.5,0],[0,0.75,0],[1,0.25,0],[1,0.5,0],[1,0.75,0]];outlineConnect=0;fontColor=#232F3E;fillColor=#8C4FFF;strokeColor=#ffffff;dashed=0;verticalLabelPosition=bottom;verticalAlign=top;align=center;html=1;fontSize=12;fontStyle=0;aspect=fixed;shape=mxgraph.aws4.resourceIcon;resIcon=mxgraph.aws4.managed_streaming_for_kafka;" vertex="1" parent="1">
          <mxGeometry x="2285" y="943.5" width="78" height="78" as="geometry" />
        </mxCell>
        <mxCell id="ePmwRNUwPmLQJli47gn0-12" style="edgeStyle=orthogonalEdgeStyle;rounded=0;orthogonalLoop=1;jettySize=auto;html=1;endArrow=none;startFill=0;" edge="1" parent="1" source="ePmwRNUwPmLQJli47gn0-10" target="ePmwRNUwPmLQJli47gn0-4">
          <mxGeometry relative="1" as="geometry" />
        </mxCell>
        <mxCell id="ePmwRNUwPmLQJli47gn0-10" value="AWS Glue" style="sketch=0;outlineConnect=0;fontColor=#232F3E;gradientColor=none;strokeColor=#ffffff;fillColor=#232F3E;dashed=0;verticalLabelPosition=middle;verticalAlign=bottom;align=center;html=1;whiteSpace=wrap;fontSize=10;fontStyle=1;spacing=3;shape=mxgraph.aws4.productIcon;prIcon=mxgraph.aws4.glue;" vertex="1" parent="1">
          <mxGeometry x="2674" y="1405" width="80" height="100" as="geometry" />
        </mxCell>
        <mxCell id="ePmwRNUwPmLQJli47gn0-15" value="" style="verticalLabelPosition=bottom;html=1;verticalAlign=top;align=center;strokeColor=none;fillColor=#00BEF2;shape=mxgraph.azure.mobile;pointerEvents=1;" vertex="1" parent="1">
          <mxGeometry x="980" y="-140" width="35" height="50" as="geometry" />
        </mxCell>
        <mxCell id="ePmwRNUwPmLQJli47gn0-16" style="edgeStyle=orthogonalEdgeStyle;rounded=0;orthogonalLoop=1;jettySize=auto;html=1;entryX=0;entryY=0.5;entryDx=0;entryDy=0;entryPerimeter=0;endArrow=none;startFill=0;" edge="1" parent="1" source="ePmwRNUwPmLQJli47gn0-15" target="Erd8DNb-W4w3eMGdOFvl-63">
          <mxGeometry relative="1" as="geometry">
            <Array as="points">
              <mxPoint x="1000" y="2" />
            </Array>
          </mxGeometry>
        </mxCell>
        <mxCell id="Erd8DNb-W4w3eMGdOFvl-14" style="edgeStyle=orthogonalEdgeStyle;rounded=0;orthogonalLoop=1;jettySize=auto;html=1;exitX=1;exitY=0.5;exitDx=0;exitDy=0;exitPerimeter=0;endArrow=box;endFill=0;entryX=0;entryY=0.5;entryDx=0;entryDy=0;entryPerimeter=0;" edge="1" parent="1" source="Erd8DNb-W4w3eMGdOFvl-12" target="sVt3kaKpTzCnSV4Rbx-7-1">
          <mxGeometry relative="1" as="geometry">
            <mxPoint x="755" y="135" as="targetPoint" />
          </mxGeometry>
        </mxCell>
        <mxCell id="sVt3kaKpTzCnSV4Rbx-7-1" value="" style="sketch=0;aspect=fixed;pointerEvents=1;shadow=0;dashed=0;html=1;strokeColor=none;labelPosition=center;verticalLabelPosition=bottom;verticalAlign=top;align=center;fillColor=#00188D;shape=mxgraph.mscae.enterprise.application" vertex="1" parent="1">
          <mxGeometry x="880" y="118" width="50" height="34" as="geometry" />
        </mxCell>
        <mxCell id="sVt3kaKpTzCnSV4Rbx-7-6" style="edgeStyle=orthogonalEdgeStyle;rounded=0;orthogonalLoop=1;jettySize=auto;html=1;endArrow=none;startFill=0;" edge="1" parent="1" source="sVt3kaKpTzCnSV4Rbx-7-2" target="sVt3kaKpTzCnSV4Rbx-7-3">
          <mxGeometry relative="1" as="geometry" />
        </mxCell>
        <mxCell id="sVt3kaKpTzCnSV4Rbx-7-2" value="" style="points=[];aspect=fixed;html=1;align=center;shadow=0;dashed=0;fillColor=#FF6A00;strokeColor=none;shape=mxgraph.alibaba_cloud.prometheus;verticalAlign=bottom;whiteSpace=wrap;" vertex="1" parent="1">
          <mxGeometry x="2685.5499999999997" y="836.55" width="48.9" height="48.9" as="geometry" />
        </mxCell>
        <mxCell id="sVt3kaKpTzCnSV4Rbx-7-3" value="" style="image;aspect=fixed;html=1;points=[];align=center;fontSize=12;image=img/lib/azure2/other/Grafana.svg;" vertex="1" parent="1">
          <mxGeometry x="2676" y="724" width="68" height="52.800000000000004" as="geometry" />
        </mxCell>
        <mxCell id="sVt3kaKpTzCnSV4Rbx-7-7" value="Sunat" style="image;aspect=fixed;html=1;points=[];align=center;fontSize=12;image=img/lib/azure2/devops/API_Connections.svg;" vertex="1" parent="1">
          <mxGeometry x="2045" y="360" width="68" height="45.32" as="geometry" />
        </mxCell>
        <mxCell id="sVt3kaKpTzCnSV4Rbx-7-8" value="PeruApis" style="image;aspect=fixed;html=1;points=[];align=center;fontSize=12;image=img/lib/azure2/devops/API_Connections.svg;" vertex="1" parent="1">
          <mxGeometry x="2196" y="360" width="68" height="45.32" as="geometry" />
        </mxCell>
        <mxCell id="sVt3kaKpTzCnSV4Rbx-7-9" value="Culqi" style="image;aspect=fixed;html=1;points=[];align=center;fontSize=12;image=img/lib/azure2/devops/API_Connections.svg;" vertex="1" parent="1">
          <mxGeometry x="1931.5" y="360" width="68" height="45.32" as="geometry" />
        </mxCell>
        <mxCell id="sVt3kaKpTzCnSV4Rbx-7-15" value="Twilio" style="image;aspect=fixed;html=1;points=[];align=center;fontSize=12;image=img/lib/azure2/devops/API_Connections.svg;" vertex="1" parent="1">
          <mxGeometry x="2315" y="360" width="68" height="45.32" as="geometry" />
        </mxCell>
        <mxCell id="elr93pxBDH8Kl8Y7-WfT-1" value="Msv - Capa integraciÃ³n" style="sketch=0;aspect=fixed;pointerEvents=1;shadow=0;dashed=0;html=1;strokeColor=none;labelPosition=center;verticalLabelPosition=bottom;verticalAlign=top;align=center;fillColor=#00188D;shape=mxgraph.mscae.enterprise.application" vertex="1" parent="1">
          <mxGeometry x="1670" y="796" width="50" height="34" as="geometry" />
        </mxCell>
        <mxCell id="elr93pxBDH8Kl8Y7-WfT-3" value="Msv - Capa integraciÃ³n" style="sketch=0;aspect=fixed;pointerEvents=1;shadow=0;dashed=0;html=1;strokeColor=none;labelPosition=center;verticalLabelPosition=bottom;verticalAlign=top;align=center;fillColor=#00188D;shape=mxgraph.mscae.enterprise.application" vertex="1" parent="1">
          <mxGeometry x="1670" y="1113" width="50" height="34" as="geometry" />
        </mxCell>
        <mxCell id="elr93pxBDH8Kl8Y7-WfT-14" style="edgeStyle=orthogonalEdgeStyle;rounded=0;orthogonalLoop=1;jettySize=auto;html=1;entryX=0;entryY=0.5;entryDx=0;entryDy=0;endArrow=box;endFill=0;" edge="1" parent="1" source="elr93pxBDH8Kl8Y7-WfT-10" target="elr93pxBDH8Kl8Y7-WfT-12">
          <mxGeometry relative="1" as="geometry" />
        </mxCell>
        <mxCell id="elr93pxBDH8Kl8Y7-WfT-10" value="" style="swimlane;startSize=0;" vertex="1" parent="1">
          <mxGeometry x="1592.5" y="751.9" width="205" height="453.2" as="geometry" />
        </mxCell>
        <mxCell id="elr93pxBDH8Kl8Y7-WfT-2" value="Msv - Capa integraciÃ³n" style="sketch=0;aspect=fixed;pointerEvents=1;shadow=0;dashed=0;html=1;strokeColor=none;labelPosition=center;verticalLabelPosition=bottom;verticalAlign=top;align=center;fillColor=#00188D;shape=mxgraph.mscae.enterprise.application" vertex="1" parent="elr93pxBDH8Kl8Y7-WfT-10">
          <mxGeometry x="77.5" y="209.60000000000002" width="50" height="34" as="geometry" />
        </mxCell>
        <mxCell id="elr93pxBDH8Kl8Y7-WfT-12" value="" style="swimlane;startSize=0;" vertex="1" parent="1">
          <mxGeometry x="1850" y="577" width="190" height="803" as="geometry" />
        </mxCell>
        <mxCell id="elr93pxBDH8Kl8Y7-WfT-15" value="VPC" style="rounded=1;arcSize=10;dashed=1;strokeColor=#ff0000;fillColor=none;gradientColor=none;dashPattern=8 4;strokeWidth=2;align=center;verticalAlign=top;" vertex="1" parent="1">
          <mxGeometry x="1285" y="1890" width="1610" height="1070" as="geometry" />
        </mxCell>
        <mxCell id="elr93pxBDH8Kl8Y7-WfT-16" style="edgeStyle=orthogonalEdgeStyle;rounded=0;orthogonalLoop=1;jettySize=auto;html=1;endArrow=none;startFill=0;exitX=1;exitY=0.5;exitDx=0;exitDy=0;exitPerimeter=0;" edge="1" parent="1" source="elr93pxBDH8Kl8Y7-WfT-42" target="elr93pxBDH8Kl8Y7-WfT-25">
          <mxGeometry relative="1" as="geometry">
            <mxPoint x="1979" y="2033.0000000000005" as="sourcePoint" />
            <mxPoint x="1579.9999999999995" y="2182.9999999999995" as="targetPoint" />
          </mxGeometry>
        </mxCell>
        <mxCell id="elr93pxBDH8Kl8Y7-WfT-17" style="edgeStyle=orthogonalEdgeStyle;rounded=0;orthogonalLoop=1;jettySize=auto;html=1;endArrow=none;startFill=0;" edge="1" parent="1" source="elr93pxBDH8Kl8Y7-WfT-18" target="elr93pxBDH8Kl8Y7-WfT-47">
          <mxGeometry relative="1" as="geometry" />
        </mxCell>
        <mxCell id="elr93pxBDH8Kl8Y7-WfT-18" value="Dynamo DB" style="sketch=0;points=[[0,0,0],[0.25,0,0],[0.5,0,0],[0.75,0,0],[1,0,0],[0,1,0],[0.25,1,0],[0.5,1,0],[0.75,1,0],[1,1,0],[0,0.25,0],[0,0.5,0],[0,0.75,0],[1,0.25,0],[1,0.5,0],[1,0.75,0]];outlineConnect=0;fontColor=#232F3E;fillColor=#C925D1;strokeColor=#ffffff;dashed=0;verticalLabelPosition=bottom;verticalAlign=top;align=center;html=1;fontSize=12;fontStyle=0;aspect=fixed;shape=mxgraph.aws4.resourceIcon;resIcon=mxgraph.aws4.documentdb_with_mongodb_compatibility;" vertex="1" parent="1">
          <mxGeometry x="2670.0000000000005" y="2331.5" width="78" height="78" as="geometry" />
        </mxCell>
        <mxCell id="elr93pxBDH8Kl8Y7-WfT-19" style="edgeStyle=orthogonalEdgeStyle;rounded=0;orthogonalLoop=1;jettySize=auto;html=1;endArrow=box;endFill=0;dashed=1;dashPattern=12 12;exitX=0.5;exitY=1;exitDx=0;exitDy=0;exitPerimeter=0;" edge="1" parent="1" source="elr93pxBDH8Kl8Y7-WfT-42" target="elr93pxBDH8Kl8Y7-WfT-45">
          <mxGeometry relative="1" as="geometry">
            <mxPoint x="1940" y="2072" as="sourcePoint" />
            <Array as="points">
              <mxPoint x="1945" y="2048" />
              <mxPoint x="1940" y="2048" />
              <mxPoint x="1940" y="2148" />
              <mxPoint x="2312.0000000000005" y="2148" />
            </Array>
            <mxPoint x="2312.0000000000005" y="2328" as="targetPoint" />
          </mxGeometry>
        </mxCell>
        <mxCell id="elr93pxBDH8Kl8Y7-WfT-20" style="edgeStyle=orthogonalEdgeStyle;rounded=0;orthogonalLoop=1;jettySize=auto;html=1;endArrow=none;startFill=0;" edge="1" parent="1" source="elr93pxBDH8Kl8Y7-WfT-21" target="elr93pxBDH8Kl8Y7-WfT-18">
          <mxGeometry relative="1" as="geometry">
            <mxPoint x="2054.0000000000005" y="2839.7500000000005" as="targetPoint" />
          </mxGeometry>
        </mxCell>
        <mxCell id="elr93pxBDH8Kl8Y7-WfT-21" value="Lambda" style="sketch=0;points=[[0,0,0],[0.25,0,0],[0.5,0,0],[0.75,0,0],[1,0,0],[0,1,0],[0.25,1,0],[0.5,1,0],[0.75,1,0],[1,1,0],[0,0.25,0],[0,0.5,0],[0,0.75,0],[1,0.25,0],[1,0.5,0],[1,0.75,0]];outlineConnect=0;fontColor=#232F3E;fillColor=#ED7100;strokeColor=#ffffff;dashed=0;verticalLabelPosition=bottom;verticalAlign=top;align=center;html=1;fontSize=12;fontStyle=0;aspect=fixed;shape=mxgraph.aws4.resourceIcon;resIcon=mxgraph.aws4.lambda;" vertex="1" parent="1">
          <mxGeometry x="2490.0000000000005" y="2331.5" width="78" height="78" as="geometry" />
        </mxCell>
        <mxCell id="elr93pxBDH8Kl8Y7-WfT-22" style="edgeStyle=orthogonalEdgeStyle;rounded=0;orthogonalLoop=1;jettySize=auto;html=1;endArrow=none;startFill=0;" edge="1" parent="1" source="elr93pxBDH8Kl8Y7-WfT-24" target="elr93pxBDH8Kl8Y7-WfT-43">
          <mxGeometry relative="1" as="geometry">
            <Array as="points">
              <mxPoint x="1455" y="2173" />
            </Array>
          </mxGeometry>
        </mxCell>
        <mxCell id="elr93pxBDH8Kl8Y7-WfT-23" style="edgeStyle=orthogonalEdgeStyle;rounded=0;orthogonalLoop=1;jettySize=auto;html=1;exitX=1;exitY=0.5;exitDx=0;exitDy=0;exitPerimeter=0;entryX=0;entryY=0.5;entryDx=0;entryDy=0;endArrow=box;endFill=0;" edge="1" parent="1" source="elr93pxBDH8Kl8Y7-WfT-24" target="elr93pxBDH8Kl8Y7-WfT-54">
          <mxGeometry relative="1" as="geometry" />
        </mxCell>
        <mxCell id="elr93pxBDH8Kl8Y7-WfT-66" style="edgeStyle=orthogonalEdgeStyle;rounded=0;orthogonalLoop=1;jettySize=auto;html=1;" edge="1" parent="1" source="elr93pxBDH8Kl8Y7-WfT-24" target="elr93pxBDH8Kl8Y7-WfT-61">
          <mxGeometry relative="1" as="geometry" />
        </mxCell>
        <mxCell id="elr93pxBDH8Kl8Y7-WfT-24" value="ECS" style="sketch=0;points=[[0,0,0],[0.25,0,0],[0.5,0,0],[0.75,0,0],[1,0,0],[0,1,0],[0.25,1,0],[0.5,1,0],[0.75,1,0],[1,1,0],[0,0.25,0],[0,0.5,0],[0,0.75,0],[1,0.25,0],[1,0.5,0],[1,0.75,0]];outlineConnect=0;fontColor=#232F3E;fillColor=#ED7100;strokeColor=#ffffff;dashed=0;verticalLabelPosition=bottom;verticalAlign=top;align=center;html=1;fontSize=12;fontStyle=0;aspect=fixed;shape=mxgraph.aws4.resourceIcon;resIcon=mxgraph.aws4.ecs;" vertex="1" parent="1">
          <mxGeometry x="1415" y="1994" width="78" height="78" as="geometry" />
        </mxCell>
        <mxCell id="elr93pxBDH8Kl8Y7-WfT-25" value="RDS" style="sketch=0;points=[[0,0,0],[0.25,0,0],[0.5,0,0],[0.75,0,0],[1,0,0],[0,1,0],[0.25,1,0],[0.5,1,0],[0.75,1,0],[1,1,0],[0,0.25,0],[0,0.5,0],[0,0.75,0],[1,0.25,0],[1,0.5,0],[1,0.75,0]];outlineConnect=0;fontColor=#232F3E;fillColor=#C925D1;strokeColor=#ffffff;dashed=0;verticalLabelPosition=bottom;verticalAlign=top;align=center;html=1;fontSize=12;fontStyle=0;aspect=fixed;shape=mxgraph.aws4.resourceIcon;resIcon=mxgraph.aws4.rds;" vertex="1" parent="1">
          <mxGeometry x="2090.0000000000005" y="1994" width="78" height="78" as="geometry" />
        </mxCell>
        <mxCell id="elr93pxBDH8Kl8Y7-WfT-26" style="edgeStyle=orthogonalEdgeStyle;rounded=0;orthogonalLoop=1;jettySize=auto;html=1;endArrow=none;startFill=0;" edge="1" parent="1" source="elr93pxBDH8Kl8Y7-WfT-45" target="elr93pxBDH8Kl8Y7-WfT-21">
          <mxGeometry relative="1" as="geometry">
            <mxPoint x="2403.52" y="2370.5" as="sourcePoint" />
          </mxGeometry>
        </mxCell>
        <mxCell id="elr93pxBDH8Kl8Y7-WfT-27" style="edgeStyle=orthogonalEdgeStyle;rounded=0;orthogonalLoop=1;jettySize=auto;html=1;endArrow=box;endFill=0;dashed=1;dashPattern=8 8;exitX=0.5;exitY=1;exitDx=0;exitDy=0;exitPerimeter=0;entryX=0;entryY=0.5;entryDx=0;entryDy=0;entryPerimeter=0;" edge="1" parent="1" source="elr93pxBDH8Kl8Y7-WfT-41" target="elr93pxBDH8Kl8Y7-WfT-45">
          <mxGeometry relative="1" as="geometry">
            <mxPoint x="2220.307692307693" y="2368" as="targetPoint" />
            <mxPoint x="1940" y="2288" as="sourcePoint" />
            <Array as="points">
              <mxPoint x="1940" y="2371" />
            </Array>
          </mxGeometry>
        </mxCell>
        <mxCell id="elr93pxBDH8Kl8Y7-WfT-28" value="RDS" style="sketch=0;points=[[0,0,0],[0.25,0,0],[0.5,0,0],[0.75,0,0],[1,0,0],[0,1,0],[0.25,1,0],[0.5,1,0],[0.75,1,0],[1,1,0],[0,0.25,0],[0,0.5,0],[0,0.75,0],[1,0.25,0],[1,0.5,0],[1,0.75,0]];outlineConnect=0;fontColor=#232F3E;fillColor=#C925D1;strokeColor=#ffffff;dashed=0;verticalLabelPosition=bottom;verticalAlign=top;align=center;html=1;fontSize=12;fontStyle=0;aspect=fixed;shape=mxgraph.aws4.resourceIcon;resIcon=mxgraph.aws4.rds;" vertex="1" parent="1">
          <mxGeometry x="2091.0000000000005" y="2210" width="78" height="78" as="geometry" />
        </mxCell>
        <mxCell id="elr93pxBDH8Kl8Y7-WfT-29" style="edgeStyle=orthogonalEdgeStyle;rounded=0;orthogonalLoop=1;jettySize=auto;html=1;endArrow=none;startFill=0;exitX=1;exitY=0.5;exitDx=0;exitDy=0;exitPerimeter=0;" edge="1" parent="1" source="elr93pxBDH8Kl8Y7-WfT-38" target="elr93pxBDH8Kl8Y7-WfT-32">
          <mxGeometry relative="1" as="geometry">
            <mxPoint x="1979" y="2689" as="sourcePoint" />
          </mxGeometry>
        </mxCell>
        <mxCell id="elr93pxBDH8Kl8Y7-WfT-30" style="edgeStyle=orthogonalEdgeStyle;rounded=0;orthogonalLoop=1;jettySize=auto;html=1;endArrow=box;endFill=0;dashed=1;dashPattern=8 8;exitX=0.5;exitY=0;exitDx=0;exitDy=0;exitPerimeter=0;" edge="1" parent="1" source="elr93pxBDH8Kl8Y7-WfT-38" target="elr93pxBDH8Kl8Y7-WfT-45">
          <mxGeometry relative="1" as="geometry">
            <mxPoint x="1927" y="2667" as="sourcePoint" />
            <mxPoint x="2304.0000000000005" y="2412" as="targetPoint" />
            <Array as="points">
              <mxPoint x="1935" y="2597" />
              <mxPoint x="2304.0000000000005" y="2597" />
            </Array>
          </mxGeometry>
        </mxCell>
        <mxCell id="elr93pxBDH8Kl8Y7-WfT-31" style="edgeStyle=orthogonalEdgeStyle;rounded=0;orthogonalLoop=1;jettySize=auto;html=1;endArrow=box;endFill=0;entryX=0;entryY=0.5;entryDx=0;entryDy=0;entryPerimeter=0;" edge="1" parent="1" source="elr93pxBDH8Kl8Y7-WfT-24" target="elr93pxBDH8Kl8Y7-WfT-38">
          <mxGeometry relative="1" as="geometry">
            <mxPoint x="1493" y="2689" as="sourcePoint" />
            <mxPoint x="1596" y="2689" as="targetPoint" />
            <Array as="points">
              <mxPoint x="1455" y="2685" />
            </Array>
          </mxGeometry>
        </mxCell>
        <mxCell id="elr93pxBDH8Kl8Y7-WfT-32" value="RDS" style="sketch=0;points=[[0,0,0],[0.25,0,0],[0.5,0,0],[0.75,0,0],[1,0,0],[0,1,0],[0.25,1,0],[0.5,1,0],[0.75,1,0],[1,1,0],[0,0.25,0],[0,0.5,0],[0,0.75,0],[1,0.25,0],[1,0.5,0],[1,0.75,0]];outlineConnect=0;fontColor=#232F3E;fillColor=#C925D1;strokeColor=#ffffff;dashed=0;verticalLabelPosition=bottom;verticalAlign=top;align=center;html=1;fontSize=12;fontStyle=0;aspect=fixed;shape=mxgraph.aws4.resourceIcon;resIcon=mxgraph.aws4.rds;" vertex="1" parent="1">
          <mxGeometry x="2091.0000000000005" y="2646" width="78" height="78" as="geometry" />
        </mxCell>
        <mxCell id="elr93pxBDH8Kl8Y7-WfT-33" style="edgeStyle=orthogonalEdgeStyle;rounded=0;orthogonalLoop=1;jettySize=auto;html=1;endArrow=none;startFill=0;" edge="1" parent="1" source="elr93pxBDH8Kl8Y7-WfT-39" target="elr93pxBDH8Kl8Y7-WfT-35">
          <mxGeometry relative="1" as="geometry">
            <mxPoint x="1977.9999999999995" y="2485" as="sourcePoint" />
          </mxGeometry>
        </mxCell>
        <mxCell id="elr93pxBDH8Kl8Y7-WfT-34" style="edgeStyle=orthogonalEdgeStyle;rounded=0;orthogonalLoop=1;jettySize=auto;html=1;endArrow=box;endFill=0;dashed=1;dashPattern=8 8;exitX=0.5;exitY=0;exitDx=0;exitDy=0;exitPerimeter=0;" edge="1" parent="1" source="elr93pxBDH8Kl8Y7-WfT-39" target="elr93pxBDH8Kl8Y7-WfT-45">
          <mxGeometry relative="1" as="geometry">
            <mxPoint x="1944" y="2467" as="sourcePoint" />
            <mxPoint x="2220.0000000000005" y="2369.5" as="targetPoint" />
            <Array as="points">
              <mxPoint x="1940" y="2370" />
            </Array>
          </mxGeometry>
        </mxCell>
        <mxCell id="elr93pxBDH8Kl8Y7-WfT-35" value="RDS" style="sketch=0;points=[[0,0,0],[0.25,0,0],[0.5,0,0],[0.75,0,0],[1,0,0],[0,1,0],[0.25,1,0],[0.5,1,0],[0.75,1,0],[1,1,0],[0,0.25,0],[0,0.5,0],[0,0.75,0],[1,0.25,0],[1,0.5,0],[1,0.75,0]];outlineConnect=0;fontColor=#232F3E;fillColor=#C925D1;strokeColor=#ffffff;dashed=0;verticalLabelPosition=bottom;verticalAlign=top;align=center;html=1;fontSize=12;fontStyle=0;aspect=fixed;shape=mxgraph.aws4.resourceIcon;resIcon=mxgraph.aws4.rds;" vertex="1" parent="1">
          <mxGeometry x="2090.0000000000005" y="2445" width="78" height="78" as="geometry" />
        </mxCell>
        <mxCell id="elr93pxBDH8Kl8Y7-WfT-36" style="edgeStyle=orthogonalEdgeStyle;rounded=0;orthogonalLoop=1;jettySize=auto;html=1;exitX=0.571;exitY=0.939;exitDx=0;exitDy=0;exitPerimeter=0;endArrow=none;startFill=0;" edge="1" parent="1" source="elr93pxBDH8Kl8Y7-WfT-49" target="elr93pxBDH8Kl8Y7-WfT-18">
          <mxGeometry relative="1" as="geometry">
            <mxPoint x="2709.0000000000005" y="2176" as="sourcePoint" />
          </mxGeometry>
        </mxCell>
        <mxCell id="elr93pxBDH8Kl8Y7-WfT-37" value="Use" style="edgeStyle=orthogonalEdgeStyle;rounded=0;orthogonalLoop=1;jettySize=auto;html=1;endArrow=classic;endFill=1;dashed=1;" edge="1" parent="1" source="elr93pxBDH8Kl8Y7-WfT-38" target="elr93pxBDH8Kl8Y7-WfT-44">
          <mxGeometry relative="1" as="geometry" />
        </mxCell>
        <mxCell id="elr93pxBDH8Kl8Y7-WfT-38" value="Msv Diagnostico" style="sketch=0;aspect=fixed;pointerEvents=1;shadow=0;dashed=0;html=1;strokeColor=none;labelPosition=center;verticalLabelPosition=bottom;verticalAlign=top;align=center;fillColor=#00188D;shape=mxgraph.mscae.enterprise.application" vertex="1" parent="1">
          <mxGeometry x="1910" y="2668" width="50" height="34" as="geometry" />
        </mxCell>
        <mxCell id="elr93pxBDH8Kl8Y7-WfT-68" style="edgeStyle=orthogonalEdgeStyle;rounded=0;orthogonalLoop=1;jettySize=auto;html=1;" edge="1" parent="1" source="elr93pxBDH8Kl8Y7-WfT-39" target="elr93pxBDH8Kl8Y7-WfT-65">
          <mxGeometry relative="1" as="geometry">
            <Array as="points">
              <mxPoint x="1940" y="2570" />
              <mxPoint x="2190" y="2570" />
            </Array>
          </mxGeometry>
        </mxCell>
        <mxCell id="elr93pxBDH8Kl8Y7-WfT-39" value="Otros msv" style="sketch=0;aspect=fixed;pointerEvents=1;shadow=0;dashed=0;html=1;strokeColor=none;labelPosition=center;verticalLabelPosition=bottom;verticalAlign=top;align=center;fillColor=#00188D;shape=mxgraph.mscae.enterprise.application" vertex="1" parent="1">
          <mxGeometry x="1915" y="2467" width="50" height="34" as="geometry" />
        </mxCell>
        <mxCell id="elr93pxBDH8Kl8Y7-WfT-40" style="edgeStyle=orthogonalEdgeStyle;rounded=0;orthogonalLoop=1;jettySize=auto;html=1;endArrow=none;startFill=0;" edge="1" parent="1" source="elr93pxBDH8Kl8Y7-WfT-41" target="elr93pxBDH8Kl8Y7-WfT-28">
          <mxGeometry relative="1" as="geometry" />
        </mxCell>
        <mxCell id="elr93pxBDH8Kl8Y7-WfT-67" style="edgeStyle=orthogonalEdgeStyle;rounded=0;orthogonalLoop=1;jettySize=auto;html=1;" edge="1" parent="1" source="elr93pxBDH8Kl8Y7-WfT-41" target="elr93pxBDH8Kl8Y7-WfT-63">
          <mxGeometry relative="1" as="geometry">
            <Array as="points">
              <mxPoint x="1940" y="2310" />
              <mxPoint x="2071" y="2310" />
            </Array>
          </mxGeometry>
        </mxCell>
        <mxCell id="elr93pxBDH8Kl8Y7-WfT-41" value="Msv Usuarios" style="sketch=0;aspect=fixed;pointerEvents=1;shadow=0;dashed=0;html=1;strokeColor=none;labelPosition=center;verticalLabelPosition=bottom;verticalAlign=top;align=center;fillColor=#00188D;shape=mxgraph.mscae.enterprise.application" vertex="1" parent="1">
          <mxGeometry x="1915" y="2232" width="50" height="34" as="geometry" />
        </mxCell>
        <mxCell id="elr93pxBDH8Kl8Y7-WfT-69" style="edgeStyle=orthogonalEdgeStyle;rounded=0;orthogonalLoop=1;jettySize=auto;html=1;" edge="1" parent="1" source="elr93pxBDH8Kl8Y7-WfT-42" target="elr93pxBDH8Kl8Y7-WfT-64">
          <mxGeometry relative="1" as="geometry" />
        </mxCell>
        <mxCell id="elr93pxBDH8Kl8Y7-WfT-70" style="edgeStyle=orthogonalEdgeStyle;rounded=0;orthogonalLoop=1;jettySize=auto;html=1;" edge="1" parent="1" source="elr93pxBDH8Kl8Y7-WfT-42" target="elr93pxBDH8Kl8Y7-WfT-62">
          <mxGeometry relative="1" as="geometry" />
        </mxCell>
        <mxCell id="elr93pxBDH8Kl8Y7-WfT-42" value="Msv Modulo de Ventas" style="sketch=0;aspect=fixed;pointerEvents=1;shadow=0;dashed=0;html=1;strokeColor=none;labelPosition=center;verticalLabelPosition=bottom;verticalAlign=top;align=center;fillColor=#00188D;shape=mxgraph.mscae.enterprise.application" vertex="1" parent="1">
          <mxGeometry x="1920" y="2016" width="50" height="34" as="geometry" />
        </mxCell>
        <mxCell id="elr93pxBDH8Kl8Y7-WfT-43" value="Amazon CloudWatch" style="sketch=0;outlineConnect=0;fontColor=#232F3E;gradientColor=none;strokeColor=#ffffff;fillColor=#232F3E;dashed=0;verticalLabelPosition=middle;verticalAlign=bottom;align=center;html=1;whiteSpace=wrap;fontSize=10;fontStyle=1;spacing=3;shape=mxgraph.aws4.productIcon;prIcon=mxgraph.aws4.cloudwatch;" vertex="1" parent="1">
          <mxGeometry x="1343.1800000000003" y="2128" width="51.82" height="90" as="geometry" />
        </mxCell>
        <mxCell id="elr93pxBDH8Kl8Y7-WfT-44" value="Amazon SageMaker" style="sketch=0;outlineConnect=0;fontColor=#232F3E;gradientColor=none;strokeColor=#ffffff;fillColor=#232F3E;dashed=0;verticalLabelPosition=middle;verticalAlign=bottom;align=center;html=1;whiteSpace=wrap;fontSize=10;fontStyle=1;spacing=3;shape=mxgraph.aws4.productIcon;prIcon=mxgraph.aws4.sagemaker;" vertex="1" parent="1">
          <mxGeometry x="1895" y="2788" width="80" height="110" as="geometry" />
        </mxCell>
        <mxCell id="elr93pxBDH8Kl8Y7-WfT-45" value="Apache Kafka" style="sketch=0;points=[[0,0,0],[0.25,0,0],[0.5,0,0],[0.75,0,0],[1,0,0],[0,1,0],[0.25,1,0],[0.5,1,0],[0.75,1,0],[1,1,0],[0,0.25,0],[0,0.5,0],[0,0.75,0],[1,0.25,0],[1,0.5,0],[1,0.75,0]];outlineConnect=0;fontColor=#232F3E;fillColor=#8C4FFF;strokeColor=#ffffff;dashed=0;verticalLabelPosition=bottom;verticalAlign=top;align=center;html=1;fontSize=12;fontStyle=0;aspect=fixed;shape=mxgraph.aws4.resourceIcon;resIcon=mxgraph.aws4.managed_streaming_for_kafka;" vertex="1" parent="1">
          <mxGeometry x="2280.0000000000005" y="2331.5" width="78" height="78" as="geometry" />
        </mxCell>
        <mxCell id="elr93pxBDH8Kl8Y7-WfT-46" style="edgeStyle=orthogonalEdgeStyle;rounded=0;orthogonalLoop=1;jettySize=auto;html=1;endArrow=none;startFill=0;" edge="1" parent="1" source="elr93pxBDH8Kl8Y7-WfT-47" target="elr93pxBDH8Kl8Y7-WfT-44">
          <mxGeometry relative="1" as="geometry" />
        </mxCell>
        <mxCell id="elr93pxBDH8Kl8Y7-WfT-47" value="AWS Glue" style="sketch=0;outlineConnect=0;fontColor=#232F3E;gradientColor=none;strokeColor=#ffffff;fillColor=#232F3E;dashed=0;verticalLabelPosition=middle;verticalAlign=bottom;align=center;html=1;whiteSpace=wrap;fontSize=10;fontStyle=1;spacing=3;shape=mxgraph.aws4.productIcon;prIcon=mxgraph.aws4.glue;" vertex="1" parent="1">
          <mxGeometry x="2669.0000000000005" y="2793" width="80" height="100" as="geometry" />
        </mxCell>
        <mxCell id="elr93pxBDH8Kl8Y7-WfT-48" style="edgeStyle=orthogonalEdgeStyle;rounded=0;orthogonalLoop=1;jettySize=auto;html=1;endArrow=none;startFill=0;" edge="1" parent="1" source="elr93pxBDH8Kl8Y7-WfT-49" target="elr93pxBDH8Kl8Y7-WfT-50">
          <mxGeometry relative="1" as="geometry" />
        </mxCell>
        <mxCell id="elr93pxBDH8Kl8Y7-WfT-49" value="" style="points=[];aspect=fixed;html=1;align=center;shadow=0;dashed=0;fillColor=#FF6A00;strokeColor=none;shape=mxgraph.alibaba_cloud.prometheus;verticalAlign=bottom;whiteSpace=wrap;" vertex="1" parent="1">
          <mxGeometry x="2680.5499999999997" y="2224.55" width="48.9" height="48.9" as="geometry" />
        </mxCell>
        <mxCell id="elr93pxBDH8Kl8Y7-WfT-50" value="" style="image;aspect=fixed;html=1;points=[];align=center;fontSize=12;image=img/lib/azure2/other/Grafana.svg;" vertex="1" parent="1">
          <mxGeometry x="2671.0000000000005" y="2112" width="68" height="52.800000000000004" as="geometry" />
        </mxCell>
        <mxCell id="elr93pxBDH8Kl8Y7-WfT-51" value="Msv - Capa integraciÃ³n" style="sketch=0;aspect=fixed;pointerEvents=1;shadow=0;dashed=0;html=1;strokeColor=none;labelPosition=center;verticalLabelPosition=bottom;verticalAlign=top;align=center;fillColor=#00188D;shape=mxgraph.mscae.enterprise.application" vertex="1" parent="1">
          <mxGeometry x="1665" y="2184" width="50" height="34" as="geometry" />
        </mxCell>
        <mxCell id="elr93pxBDH8Kl8Y7-WfT-52" value="Msv - Capa integraciÃ³n" style="sketch=0;aspect=fixed;pointerEvents=1;shadow=0;dashed=0;html=1;strokeColor=none;labelPosition=center;verticalLabelPosition=bottom;verticalAlign=top;align=center;fillColor=#00188D;shape=mxgraph.mscae.enterprise.application" vertex="1" parent="1">
          <mxGeometry x="1665" y="2501" width="50" height="34" as="geometry" />
        </mxCell>
        <mxCell id="elr93pxBDH8Kl8Y7-WfT-53" style="edgeStyle=orthogonalEdgeStyle;rounded=0;orthogonalLoop=1;jettySize=auto;html=1;entryX=0;entryY=0.5;entryDx=0;entryDy=0;endArrow=box;endFill=0;" edge="1" parent="1" source="elr93pxBDH8Kl8Y7-WfT-54" target="elr93pxBDH8Kl8Y7-WfT-56">
          <mxGeometry relative="1" as="geometry" />
        </mxCell>
        <mxCell id="elr93pxBDH8Kl8Y7-WfT-54" value="" style="swimlane;startSize=0;" vertex="1" parent="1">
          <mxGeometry x="1587.5" y="2139.9" width="205" height="453.2" as="geometry" />
        </mxCell>
        <mxCell id="elr93pxBDH8Kl8Y7-WfT-55" value="Msv - Capa integraciÃ³n" style="sketch=0;aspect=fixed;pointerEvents=1;shadow=0;dashed=0;html=1;strokeColor=none;labelPosition=center;verticalLabelPosition=bottom;verticalAlign=top;align=center;fillColor=#00188D;shape=mxgraph.mscae.enterprise.application" vertex="1" parent="elr93pxBDH8Kl8Y7-WfT-54">
          <mxGeometry x="77.5" y="209.60000000000002" width="50" height="34" as="geometry" />
        </mxCell>
        <mxCell id="elr93pxBDH8Kl8Y7-WfT-56" value="" style="swimlane;startSize=0;" vertex="1" parent="1">
          <mxGeometry x="1845" y="1965" width="190" height="803" as="geometry" />
        </mxCell>
        <mxCell id="elr93pxBDH8Kl8Y7-WfT-57" style="edgeStyle=orthogonalEdgeStyle;rounded=0;orthogonalLoop=1;jettySize=auto;html=1;entryX=0;entryY=0.5;entryDx=0;entryDy=0;entryPerimeter=0;endArrow=box;endFill=0;" edge="1" parent="1" source="Erd8DNb-W4w3eMGdOFvl-84" target="elr93pxBDH8Kl8Y7-WfT-24">
          <mxGeometry relative="1" as="geometry" />
        </mxCell>
        <mxCell id="elr93pxBDH8Kl8Y7-WfT-61" value="AWS Secrets Manager" style="sketch=0;outlineConnect=0;fontColor=#232F3E;gradientColor=none;strokeColor=#ffffff;fillColor=#232F3E;dashed=0;verticalLabelPosition=middle;verticalAlign=bottom;align=center;html=1;whiteSpace=wrap;fontSize=10;fontStyle=1;spacing=3;shape=mxgraph.aws4.productIcon;prIcon=mxgraph.aws4.secrets_manager;" vertex="1" parent="1">
          <mxGeometry x="950" y="1978" width="80" height="110" as="geometry" />
        </mxCell>
        <mxCell id="elr93pxBDH8Kl8Y7-WfT-62" value="Sunat" style="image;aspect=fixed;html=1;points=[];align=center;fontSize=12;image=img/lib/azure2/devops/API_Connections.svg;" vertex="1" parent="1">
          <mxGeometry x="1792.5" y="3160" width="68" height="45.32" as="geometry" />
        </mxCell>
        <mxCell id="elr93pxBDH8Kl8Y7-WfT-63" value="PeruApis" style="image;aspect=fixed;html=1;points=[];align=center;fontSize=12;image=img/lib/azure2/devops/API_Connections.svg;" vertex="1" parent="1">
          <mxGeometry x="2034" y="3160" width="68" height="45.32" as="geometry" />
        </mxCell>
        <mxCell id="elr93pxBDH8Kl8Y7-WfT-64" value="Culqi" style="image;aspect=fixed;html=1;points=[];align=center;fontSize=12;image=img/lib/azure2/devops/API_Connections.svg;" vertex="1" parent="1">
          <mxGeometry x="1679" y="3160" width="68" height="45.32" as="geometry" />
        </mxCell>
        <mxCell id="elr93pxBDH8Kl8Y7-WfT-65" value="Twilio" style="image;aspect=fixed;html=1;points=[];align=center;fontSize=12;image=img/lib/azure2/devops/API_Connections.svg;" vertex="1" parent="1">
          <mxGeometry x="2153" y="3160" width="68" height="45.32" as="geometry" />
        </mxCell>
      </root>
    </mxGraphModel>
  </diagram>
</mxfile>
